<svg width="41" height="49" viewBox="0 0 41 49" fill="none" xmlns="http://www.w3.org/2000/svg">
<path d="M38.1074 12.5315C38.0628 12.0033 37.6179 11.5986 37.0878 11.6038H29.3383V8.6671C29.3383 3.88028 25.4577 0 20.6712 0C15.8844 0 12.0041 3.88028 12.0041 8.6671V11.6038H4.25474C3.72699 11.6058 3.28646 12.0065 3.23508 12.5315L0.563654 43.2439C0.442171 44.6678 0.923323 46.0778 1.8908 47.1306C2.85789 48.1829 4.22208 48.7815 5.65159 48.7803H35.7009C37.1304 48.7815 38.4946 48.1829 39.4616 47.1306C40.4291 46.0778 40.9107 44.6678 40.7892 43.2439L38.1074 12.5315ZM14.0435 8.6671C14.0435 5.00669 17.0108 2.03932 20.6712 2.03932C24.3317 2.03932 27.299 5.00669 27.299 8.6671V11.6038H14.0435V8.6671ZM37.9545 45.752C37.3777 46.3869 36.5584 46.7466 35.7009 46.741H5.64124C4.78369 46.7414 3.96557 46.3817 3.38564 45.75C2.80611 45.1179 2.51813 44.2715 2.59262 43.4172L5.18239 13.6431H12.0041V20.0056C10.3643 20.5103 9.34029 22.1382 9.5956 23.8349C9.85052 25.5313 11.3083 26.786 13.0238 26.786C14.7393 26.786 16.1967 25.5313 16.452 23.8349C16.7069 22.1382 15.6829 20.5103 14.0435 20.0056V13.6328H27.299V20.0056C25.6592 20.5103 24.6352 22.1382 24.8905 23.8349C25.1454 25.5313 26.6032 26.786 28.3187 26.786C30.0342 26.786 31.4916 25.5313 31.7469 23.8349C32.0018 22.1382 30.9778 20.5103 29.3383 20.0056V13.6328H36.1497L38.7395 43.4068C38.8232 44.2648 38.5376 45.1175 37.9545 45.752V45.752ZM12.8709 21.9024C12.9724 21.9159 13.0752 21.9159 13.1768 21.9024C13.9307 21.9836 14.49 22.6408 14.4493 23.398C14.4083 24.1556 13.7822 24.749 13.0238 24.749C12.265 24.749 11.6389 24.1556 11.5983 23.398C11.5576 22.6408 12.1165 21.9836 12.8709 21.9024ZM28.1657 21.9024C28.2673 21.9159 28.3701 21.9159 28.4716 21.9024C29.2256 21.9836 29.7848 22.6408 29.7442 23.398C29.7032 24.1556 29.0771 24.749 28.3187 24.749C27.5599 24.749 26.9338 24.1556 26.8932 23.398C26.8525 22.6408 27.4113 21.9836 28.1657 21.9024V21.9024Z" fill="black"/>
<path d="M21.404 30.98V38H19.694V33.79L18.124 38H16.744L15.164 33.78V38H13.454V30.98H15.474L17.444 35.84L19.394 30.98H21.404ZM25.1737 38.07C24.6603 38.07 24.2003 37.9867 23.7937 37.82C23.387 37.6533 23.0603 37.4067 22.8137 37.08C22.5737 36.7533 22.447 36.36 22.4337 35.9H24.2537C24.2803 36.16 24.3703 36.36 24.5237 36.5C24.677 36.6333 24.877 36.7 25.1237 36.7C25.377 36.7 25.577 36.6433 25.7237 36.53C25.8703 36.41 25.9437 36.2467 25.9437 36.04C25.9437 35.8667 25.8837 35.7233 25.7637 35.61C25.6503 35.4967 25.507 35.4033 25.3337 35.33C25.167 35.2567 24.927 35.1733 24.6137 35.08C24.1603 34.94 23.7903 34.8 23.5037 34.66C23.217 34.52 22.9703 34.3133 22.7637 34.04C22.557 33.7667 22.4537 33.41 22.4537 32.97C22.4537 32.3167 22.6903 31.8067 23.1637 31.44C23.637 31.0667 24.2537 30.88 25.0137 30.88C25.787 30.88 26.4103 31.0667 26.8837 31.44C27.357 31.8067 27.6103 32.32 27.6437 32.98H25.7937C25.7803 32.7533 25.697 32.5767 25.5437 32.45C25.3903 32.3167 25.1937 32.25 24.9537 32.25C24.747 32.25 24.5803 32.3067 24.4537 32.42C24.327 32.5267 24.2637 32.6833 24.2637 32.89C24.2637 33.1167 24.3703 33.2933 24.5837 33.42C24.797 33.5467 25.1303 33.6833 25.5837 33.83C26.037 33.9833 26.4037 34.13 26.6837 34.27C26.9703 34.41 27.217 34.6133 27.4237 34.88C27.6303 35.1467 27.7337 35.49 27.7337 35.91C27.7337 36.31 27.6303 36.6733 27.4237 37C27.2237 37.3267 26.9303 37.5867 26.5437 37.78C26.157 37.9733 25.7003 38.07 25.1737 38.07Z" fill="#3A90F4"/>
</svg>
